<?xml version="1.0" encoding="UTF-8" standalone="no"?>
<!-- Created with Inkscape (http://www.inkscape.org/) -->

<svg
   width="71.440796mm"
   height="38.316967mm"
   viewBox="0 0 71.440796 38.316967"
   version="1.1"
   id="svg5"
   inkscape:version="1.1.2 (0a00cf5, 2022-02-04)"
   sodipodi:docname="signature-white.svg"
   xmlns:inkscape="http://www.inkscape.org/namespaces/inkscape"
   xmlns:sodipodi="http://sodipodi.sourceforge.net/DTD/sodipodi-0.dtd"
   xmlns="http://www.w3.org/2000/svg"
   xmlns:svg="http://www.w3.org/2000/svg">
  <sodipodi:namedview
     id="namedview7"
     pagecolor="#ffffff"
     bordercolor="#666666"
     borderopacity="1.0"
     inkscape:pageshadow="2"
     inkscape:pageopacity="0.0"
     inkscape:pagecheckerboard="0"
     inkscape:document-units="mm"
     showgrid="false"
     inkscape:zoom="0.45878928"
     inkscape:cx="-258.28851"
     inkscape:cy="561.25984"
     inkscape:window-width="1366"
     inkscape:window-height="742"
     inkscape:window-x="0"
     inkscape:window-y="0"
     inkscape:window-maximized="1"
     inkscape:current-layer="layer1" />
  <defs
     id="defs2">
    <inkscape:path-effect
       effect="simplify"
       id="path-effect985"
       is_visible="true"
       lpeversion="1"
       steps="1"
       threshold="0.00416667"
       smooth_angles="360"
       helper_size="0"
       simplify_individual_paths="false"
       simplify_just_coalesce="false" />
    <inkscape:path-effect
       effect="simplify"
       id="path-effect981"
       is_visible="true"
       lpeversion="1"
       steps="1"
       threshold="0.00416667"
       smooth_angles="360"
       helper_size="0"
       simplify_individual_paths="false"
       simplify_just_coalesce="false" />
    <filter
       style="color-interpolation-filters:sRGB"
       inkscape:label="Lightness-Contrast"
       id="filter1303"
       x="0"
       y="0"
       width="1"
       height="1">
      <feColorMatrix
         values="2.17786 0 0 0 -0.588928 0 2.17786 0 0 -0.588928 0 0 2.17786 0 -0.588928 0 0 0 1 0"
         id="feColorMatrix1301" />
    </filter>
  </defs>
  <g
     inkscape:label="Layer 1"
     inkscape:groupmode="layer"
     id="layer1"
     transform="translate(-160.35727,0.12741729)">
    <g
       inkscape:label="Layer 1"
       id="layer1-9"
       transform="translate(-80.437823,-103.30881)"
       style="fill:#ffffff">
      <path
         style="fill:#ffffff;stroke-width:0.264583"
         d="m 240.85162,141.35375 c -0.38078,-0.38078 1.25167,-2.92588 2.22145,-4.9687 1.38566,-2.91887 1.59574,-3.29841 2.23181,-5.01355 0.91489,-2.46697 1.45234,-5.05908 2.26812,-7.56057 0.81369,-2.49506 1.90054,-7.28557 2.61844,-7.425 2.19853,-0.42702 1.1719,1.90817 1.44576,8.99548 0.0703,1.81901 0.13085,3.65456 0.13459,4.07899 0.004,0.42444 0.0552,0.72209 0.11443,0.66146 0.0592,-0.0606 0.82994,-2.70545 1.71277,-5.87737 1.78103,-6.39902 3.37818,-14.1965 3.61823,-17.66456 0.18132,-2.61955 0.44792,-3.44767 1.27076,-3.39631 0.36721,0.0229 0.30406,1.60922 0.30406,10.10692 0,5.04068 0.0164,9.18067 0.0389,9.18059 0.0225,-8e-5 0.40751,-0.64976 0.85561,-1.44374 1.09212,-1.93513 2.25186,-2.43033 3.08782,-1.78768 0.41814,0.32145 0.53769,0.97366 0.65461,3.06546 0.12073,2.16002 0.22903,2.61671 0.75269,3.17412 1.69328,1.80241 3.95331,0.51684 5.16901,-2.94027 l 0.39477,-1.12259 -1.448,-0.68501 c -2.78041,-1.31535 -3.03422,-3.6956 -2.5687,-4.79803 0.58828,-1.39316 0.78292,-1.60074 1.5242,-1.98125 0.86767,-0.44539 2.1237,-0.56252 2.92428,-0.0978 1.31814,0.76515 1.6604,1.96153 1.4451,4.33798 l -0.18805,2.0757 1.51475,0.16974 c 2.56184,0.28707 7.13783,-0.52083 12.89781,-2.32164 3.15331,-0.98585 6.06103,-1.6678 8.52708,-1.99986 3.30492,-0.44501 7.92769,-0.62981 11.46649,-0.1818 l 4.12059,0.37795 -5.4676,0.20218 c -10.74731,0.39741 -10.10266,0.8357 -19.54441,3.45561 -5.91547,1.64144 -8.55985,2.08011 -11.58267,1.92145 l -2.19717,-0.11532 -0.45586,1.33964 c -0.77427,2.27534 -2.21177,4.00971 -3.85677,4.42793 -1.72764,0.43923 -3.38311,-0.16852 -4.06621,-1.3793 -0.48116,-0.85285 -0.60251,-1.01009 -0.69702,-2.85377 -0.006,-3.17057 -0.30725,-3.22536 -1.68038,-0.30594 -0.64907,1.37998 -1.33206,3.02746 -1.51777,3.66107 -0.34691,1.18365 -0.91418,1.68089 -1.3332,1.16528 -0.27591,-0.33951 -0.26028,-2.49848 -0.25036,-6.0544 l 0.0162,-5.7879 -1.29125,5.02708 c -1.30175,5.06794 -3.30359,11.92585 -3.7978,13.01052 -0.34929,0.76662 -1.11236,0.95367 -1.6293,0.48678 -0.40831,-0.36878 -0.29803,-0.9224 -0.41829,-6.57517 -0.0728,-3.42001 -0.19736,-6.2829 -0.2769,-6.36198 -0.0795,-0.0791 -0.54086,1.48893 -1.02519,3.48449 -1.7762,7.31848 -3.02763,10.44425 -5.79555,14.47591 -1.19904,1.74648 -1.81412,2.24512 -2.24183,1.81742 z m 29.33296,-22.45463 c 0.31003,-1.65261 0.16032,-3.43944 -1.1104,-3.83646 -0.95648,-0.29884 -2.05207,0.57733 -2.08004,1.58115 -0.0289,1.03752 0.55609,2.05566 1.65643,2.63663 1.31235,0.69291 1.33347,0.68766 1.53401,-0.38132 z m 37.909,-3.07022 3.25817,0.31685 -6.09227,0.17435"
         id="path1323-1"
         sodipodi:nodetypes="csaasscssssssssssscssasscsssccssscssscsssccsssssssccsssssccc" />
      <path
         style="fill:#ffffff;stroke-width:0.264583"
         d="m 241.38079,140.82458 c -0.38078,-0.38077 0.48757,-1.92669 1.75245,-3.80116 2.72016,-4.0311 2.77879,-4.86726 5.06872,-13.74166 1.47251,-5.70652 1.93194,-6.89618 2.66324,-6.89618 0.81533,0 1.02731,1.37935 1.30117,8.46666 0.0703,1.81901 0.13085,3.65457 0.13459,4.079 0.004,0.42444 0.0552,0.72209 0.11443,0.66146 0.0592,-0.0606 0.82994,-2.70546 1.71277,-5.87738 1.78103,-6.39902 3.37818,-14.1965 3.61823,-17.66456 0.18132,-2.61955 0.40316,-3.16951 1.10228,-2.73253 0.43629,0.27271 0.47055,0.9613 0.47055,9.45901 0,5.04068 0.0184,9.1648 0.0409,9.16472 0.0225,-7e-5 0.40751,-0.64975 0.85561,-1.44373 1.09212,-1.93513 2.25186,-2.43033 3.08782,-1.78768 0.41814,0.32145 0.53769,0.97366 0.65461,3.06546 0.12073,2.16002 0.22903,2.61671 0.75269,3.17412 1.69328,1.80241 3.95331,0.51684 5.16901,-2.94027 l 0.39477,-1.12259 -1.448,-0.68502 c -2.78041,-1.31534 -3.59888,-2.16086 -3.2552,-4.57252 0.1469,-1.03079 1.04642,-1.97166 1.99447,-2.3991 0.95476,-0.43047 2.33993,-0.37018 3.14051,0.0945 1.31814,0.76515 1.6604,1.96153 1.4451,4.33798 l -0.18805,2.0757 1.51475,0.16974 c 2.56184,0.28707 7.13783,-0.52083 12.89781,-2.32164 3.15331,-0.98585 6.06103,-1.6678 8.52708,-1.99986 3.30492,-0.44501 10.75128,-0.44201 14.29008,0.006 l 3.04271,0.38501 -5.02709,0.19475 c -10.74659,0.41632 -12.28888,0.64827 -21.73063,3.26818 -5.91547,1.64144 -8.55985,2.08011 -11.58267,1.92145 l -2.19717,-0.11532 -0.45586,1.33964 c -0.77427,2.27534 -2.21177,4.00971 -3.85677,4.42793 -1.72764,0.43923 -3.38311,-0.16852 -4.06621,-1.3793 -0.48116,-0.85285 -0.60251,-1.01009 -0.69702,-2.85377 -0.006,-3.17057 -0.30725,-3.22536 -1.68038,-0.30594 -0.64907,1.37998 -1.33206,3.02746 -1.51777,3.66107 -0.34691,1.18365 -0.74796,1.81602 -1.40732,1.89779 -1.01305,0.12565 -0.18616,-3.23099 -0.17624,-6.78691 l 0.0162,-5.7879 -1.29125,5.02708 c -1.30175,5.06794 -3.69929,12.07484 -4.1935,13.15951 -0.34929,0.76662 -0.42671,0.77907 -1.03086,0.3378 -0.4443,-0.32453 -0.50077,-0.92241 -0.62103,-6.57518 -0.0728,-3.42001 -0.19736,-6.2829 -0.2769,-6.36197 -0.0795,-0.0791 -0.54086,1.48893 -1.02519,3.48448 -1.7762,7.31848 -3.02763,10.44425 -5.79555,14.47591 -1.19904,1.74648 -1.81412,2.24512 -2.24183,1.81742 z m 29.33296,-22.45463 c 0.31003,-1.65261 0.16032,-3.43944 -1.1104,-3.83646 -0.6222,-0.1944 -0.85417,0.2377 -1.58967,0.62016 -0.31906,0.16591 -0.48059,0.61016 -0.49037,0.96099 -0.0289,1.03752 0.55609,2.05566 1.65643,2.63663 1.31235,0.69291 1.33347,0.68766 1.53401,-0.38132 z"
         id="path1323-8"
         sodipodi:nodetypes="csssscssssssssssscssasscsssccssscssscsssccsssssssccssssss" />
    </g>
  </g>
</svg>
